<mxfile host="app.diagrams.net" agent="Mozilla/5.0 (Windows NT 10.0; Win64; x64) AppleWebKit/537.36 (KHTML, like Gecko) Chrome/133.0.0.0 Safari/537.36" version="26.0.16">
  <diagram name="Página-1" id="8MuC-DbSRMC-BdxRvOf7">
    <mxGraphModel dx="3217" dy="1253" grid="1" gridSize="10" guides="1" tooltips="1" connect="1" arrows="1" fold="1" page="1" pageScale="1" pageWidth="827" pageHeight="1169" math="0" shadow="0">
      <root>
        <mxCell id="0" />
        <mxCell id="1" parent="0" />
        <mxCell id="I9MuD-WdvE4B0fHDudqE-1" value="Entregar software de qualidade" style="rounded=0;whiteSpace=wrap;html=1;" vertex="1" parent="1">
          <mxGeometry x="-100" y="40" width="120" height="60" as="geometry" />
        </mxCell>
        <mxCell id="I9MuD-WdvE4B0fHDudqE-2" value="Usabilidade" style="rounded=0;whiteSpace=wrap;html=1;" vertex="1" parent="1">
          <mxGeometry x="-266" y="190" width="100" height="50" as="geometry" />
        </mxCell>
        <mxCell id="I9MuD-WdvE4B0fHDudqE-4" value="Desem&lt;span style=&quot;color: rgba(0, 0, 0, 0); font-family: monospace; font-size: 0px; text-align: start; text-wrap-mode: nowrap;&quot;&gt;%3CmxGraphModel%3E%3Croot%3E%3CmxCell%20id%3D%220%22%2F%3E%3CmxCell%20id%3D%221%22%20parent%3D%220%22%2F%3E%3CmxCell%20id%3D%222%22%20value%3D%22Usabilidade%22%20style%3D%22rounded%3D0%3BwhiteSpace%3Dwrap%3Bhtml%3D1%3B%22%20vertex%3D%221%22%20parent%3D%221%22%3E%3CmxGeometry%20x%3D%22180%22%20y%3D%22210%22%20width%3D%22120%22%20height%3D%2260%22%20as%3D%22geometry%22%2F%3E%3C%2FmxCell%3E%3C%2Froot%3E%3C%2FmxGraphModel%3E&lt;/span&gt;penho" style="rounded=0;whiteSpace=wrap;html=1;" vertex="1" parent="1">
          <mxGeometry x="49" y="190" width="100" height="50" as="geometry" />
        </mxCell>
        <mxCell id="I9MuD-WdvE4B0fHDudqE-5" value="Segurança" style="rounded=0;whiteSpace=wrap;html=1;" vertex="1" parent="1">
          <mxGeometry x="295" y="190" width="100" height="50" as="geometry" />
        </mxCell>
        <mxCell id="I9MuD-WdvE4B0fHDudqE-6" value="Sustentabilidade" style="rounded=0;whiteSpace=wrap;html=1;" vertex="1" parent="1">
          <mxGeometry x="-500" y="190" width="100" height="50" as="geometry" />
        </mxCell>
        <mxCell id="I9MuD-WdvE4B0fHDudqE-7" value="" style="endArrow=none;html=1;rounded=0;entryX=0.5;entryY=1;entryDx=0;entryDy=0;exitX=0.5;exitY=0;exitDx=0;exitDy=0;" edge="1" parent="1" source="I9MuD-WdvE4B0fHDudqE-6" target="I9MuD-WdvE4B0fHDudqE-1">
          <mxGeometry width="50" height="50" relative="1" as="geometry">
            <mxPoint x="40" y="180" as="sourcePoint" />
            <mxPoint x="90" y="130" as="targetPoint" />
            <Array as="points">
              <mxPoint x="-450" y="160" />
              <mxPoint x="-165" y="160" />
              <mxPoint x="-50" y="160" />
              <mxPoint x="-40" y="160" />
            </Array>
          </mxGeometry>
        </mxCell>
        <mxCell id="I9MuD-WdvE4B0fHDudqE-8" value="" style="endArrow=none;html=1;rounded=0;exitX=0.5;exitY=0;exitDx=0;exitDy=0;" edge="1" parent="1" source="I9MuD-WdvE4B0fHDudqE-5">
          <mxGeometry width="50" height="50" relative="1" as="geometry">
            <mxPoint x="-155" y="200" as="sourcePoint" />
            <mxPoint x="-40" y="160" as="targetPoint" />
            <Array as="points">
              <mxPoint x="345" y="160" />
              <mxPoint x="195" y="160" />
              <mxPoint x="80" y="160" />
              <mxPoint x="40" y="160" />
            </Array>
          </mxGeometry>
        </mxCell>
        <mxCell id="I9MuD-WdvE4B0fHDudqE-9" value="" style="endArrow=none;html=1;rounded=0;exitX=0.5;exitY=0;exitDx=0;exitDy=0;" edge="1" parent="1" source="I9MuD-WdvE4B0fHDudqE-2">
          <mxGeometry width="50" height="50" relative="1" as="geometry">
            <mxPoint x="-40" y="190" as="sourcePoint" />
            <mxPoint x="-40" y="160" as="targetPoint" />
            <Array as="points">
              <mxPoint x="-216" y="160" />
            </Array>
          </mxGeometry>
        </mxCell>
        <mxCell id="I9MuD-WdvE4B0fHDudqE-10" value="" style="endArrow=none;html=1;rounded=0;" edge="1" parent="1">
          <mxGeometry width="50" height="50" relative="1" as="geometry">
            <mxPoint x="100" y="190" as="sourcePoint" />
            <mxPoint x="100" y="160" as="targetPoint" />
          </mxGeometry>
        </mxCell>
        <mxCell id="I9MuD-WdvE4B0fHDudqE-11" value="Tempo de resposta" style="rounded=0;whiteSpace=wrap;html=1;" vertex="1" parent="1">
          <mxGeometry x="-50" y="310" width="90" height="40" as="geometry" />
        </mxCell>
        <mxCell id="I9MuD-WdvE4B0fHDudqE-12" value="Escalabilidade" style="rounded=0;whiteSpace=wrap;html=1;" vertex="1" parent="1">
          <mxGeometry x="54" y="310" width="90" height="40" as="geometry" />
        </mxCell>
        <mxCell id="I9MuD-WdvE4B0fHDudqE-13" value="Uso eficiente dos recursos" style="rounded=0;whiteSpace=wrap;html=1;" vertex="1" parent="1">
          <mxGeometry x="160" y="310" width="90" height="40" as="geometry" />
        </mxCell>
        <mxCell id="I9MuD-WdvE4B0fHDudqE-15" value="" style="endArrow=none;html=1;rounded=0;" edge="1" parent="1">
          <mxGeometry width="50" height="50" relative="1" as="geometry">
            <mxPoint y="310" as="sourcePoint" />
            <mxPoint x="100" y="240" as="targetPoint" />
            <Array as="points">
              <mxPoint y="270" />
              <mxPoint x="100" y="270" />
            </Array>
          </mxGeometry>
        </mxCell>
        <mxCell id="I9MuD-WdvE4B0fHDudqE-16" value="" style="endArrow=none;html=1;rounded=0;" edge="1" parent="1">
          <mxGeometry width="50" height="50" relative="1" as="geometry">
            <mxPoint x="100" y="309" as="sourcePoint" />
            <mxPoint x="100" y="270" as="targetPoint" />
          </mxGeometry>
        </mxCell>
        <mxCell id="I9MuD-WdvE4B0fHDudqE-17" value="" style="endArrow=none;html=1;rounded=0;entryX=0.5;entryY=0;entryDx=0;entryDy=0;" edge="1" parent="1" target="I9MuD-WdvE4B0fHDudqE-13">
          <mxGeometry width="50" height="50" relative="1" as="geometry">
            <mxPoint x="80" y="270" as="sourcePoint" />
            <mxPoint x="160" y="270" as="targetPoint" />
            <Array as="points">
              <mxPoint x="205" y="270" />
            </Array>
          </mxGeometry>
        </mxCell>
        <mxCell id="I9MuD-WdvE4B0fHDudqE-18" value="Controle de acesso" style="rounded=0;whiteSpace=wrap;html=1;" vertex="1" parent="1">
          <mxGeometry x="300" y="310" width="90" height="40" as="geometry" />
        </mxCell>
        <mxCell id="I9MuD-WdvE4B0fHDudqE-19" value="" style="endArrow=none;html=1;rounded=0;entryX=0.5;entryY=1;entryDx=0;entryDy=0;exitX=0.5;exitY=0;exitDx=0;exitDy=0;" edge="1" parent="1" source="I9MuD-WdvE4B0fHDudqE-18" target="I9MuD-WdvE4B0fHDudqE-5">
          <mxGeometry width="50" height="50" relative="1" as="geometry">
            <mxPoint x="310" y="310" as="sourcePoint" />
            <mxPoint x="360" y="260" as="targetPoint" />
          </mxGeometry>
        </mxCell>
        <mxCell id="I9MuD-WdvE4B0fHDudqE-20" value="Acessibilidade" style="rounded=0;whiteSpace=wrap;html=1;" vertex="1" parent="1">
          <mxGeometry x="-360" y="310" width="90" height="40" as="geometry" />
        </mxCell>
        <mxCell id="I9MuD-WdvE4B0fHDudqE-21" value="Interface intuitiva" style="rounded=0;whiteSpace=wrap;html=1;" vertex="1" parent="1">
          <mxGeometry x="-256" y="310" width="90" height="40" as="geometry" />
        </mxCell>
        <mxCell id="I9MuD-WdvE4B0fHDudqE-22" value="Atende aos requisitos" style="rounded=0;whiteSpace=wrap;html=1;" vertex="1" parent="1">
          <mxGeometry x="-150" y="310" width="90" height="40" as="geometry" />
        </mxCell>
        <mxCell id="I9MuD-WdvE4B0fHDudqE-23" value="Respeitar as leis" style="rounded=0;whiteSpace=wrap;html=1;" vertex="1" parent="1">
          <mxGeometry x="-495" y="310" width="90" height="40" as="geometry" />
        </mxCell>
        <mxCell id="I9MuD-WdvE4B0fHDudqE-24" value="" style="endArrow=none;html=1;rounded=0;entryX=0.5;entryY=1;entryDx=0;entryDy=0;exitX=0.5;exitY=0;exitDx=0;exitDy=0;" edge="1" parent="1" source="I9MuD-WdvE4B0fHDudqE-23" target="I9MuD-WdvE4B0fHDudqE-6">
          <mxGeometry width="50" height="50" relative="1" as="geometry">
            <mxPoint x="-490" y="290" as="sourcePoint" />
            <mxPoint x="-440" y="240" as="targetPoint" />
          </mxGeometry>
        </mxCell>
        <mxCell id="I9MuD-WdvE4B0fHDudqE-25" value="" style="endArrow=none;html=1;rounded=0;entryX=0.5;entryY=1;entryDx=0;entryDy=0;exitX=0.5;exitY=0;exitDx=0;exitDy=0;" edge="1" parent="1" source="I9MuD-WdvE4B0fHDudqE-20" target="I9MuD-WdvE4B0fHDudqE-2">
          <mxGeometry width="50" height="50" relative="1" as="geometry">
            <mxPoint x="-280" y="310" as="sourcePoint" />
            <mxPoint x="-200" y="230" as="targetPoint" />
            <Array as="points">
              <mxPoint x="-315" y="270" />
              <mxPoint x="-216" y="270" />
            </Array>
          </mxGeometry>
        </mxCell>
        <mxCell id="I9MuD-WdvE4B0fHDudqE-26" value="" style="endArrow=none;html=1;rounded=0;exitX=0.443;exitY=0.011;exitDx=0;exitDy=0;exitPerimeter=0;" edge="1" parent="1" source="I9MuD-WdvE4B0fHDudqE-21">
          <mxGeometry width="50" height="50" relative="1" as="geometry">
            <mxPoint x="-200" y="310" as="sourcePoint" />
            <mxPoint x="-216" y="270" as="targetPoint" />
          </mxGeometry>
        </mxCell>
        <mxCell id="I9MuD-WdvE4B0fHDudqE-27" value="" style="endArrow=none;html=1;rounded=0;entryX=0.5;entryY=0;entryDx=0;entryDy=0;" edge="1" parent="1" target="I9MuD-WdvE4B0fHDudqE-22">
          <mxGeometry width="50" height="50" relative="1" as="geometry">
            <mxPoint x="-220" y="270" as="sourcePoint" />
            <mxPoint x="-75" y="310" as="targetPoint" />
            <Array as="points">
              <mxPoint x="-105" y="270" />
            </Array>
          </mxGeometry>
        </mxCell>
        <mxCell id="I9MuD-WdvE4B0fHDudqE-29" value="SGO" style="rounded=0;whiteSpace=wrap;html=1;" vertex="1" parent="1">
          <mxGeometry x="-100" y="860" width="120" height="60" as="geometry" />
        </mxCell>
        <mxCell id="I9MuD-WdvE4B0fHDudqE-31" value="Definição" style="rounded=0;whiteSpace=wrap;html=1;" vertex="1" parent="1">
          <mxGeometry x="-570" y="740" width="100" height="50" as="geometry" />
        </mxCell>
        <mxCell id="I9MuD-WdvE4B0fHDudqE-32" value="Execução" style="rounded=0;whiteSpace=wrap;html=1;" vertex="1" parent="1">
          <mxGeometry x="325" y="740" width="100" height="50" as="geometry" />
        </mxCell>
        <mxCell id="I9MuD-WdvE4B0fHDudqE-33" value="Lançamento" style="rounded=0;whiteSpace=wrap;html=1;" vertex="1" parent="1">
          <mxGeometry x="827" y="730" width="100" height="50" as="geometry" />
        </mxCell>
        <mxCell id="I9MuD-WdvE4B0fHDudqE-34" value="Sustentabilidade" style="rounded=0;whiteSpace=wrap;html=1;" vertex="1" parent="1">
          <mxGeometry x="-710" y="656" width="100" height="50" as="geometry" />
        </mxCell>
        <mxCell id="I9MuD-WdvE4B0fHDudqE-35" value="Requisitos" style="rounded=0;whiteSpace=wrap;html=1;" vertex="1" parent="1">
          <mxGeometry x="-470" y="636" width="100" height="50" as="geometry" />
        </mxCell>
        <mxCell id="I9MuD-WdvE4B0fHDudqE-36" value="Design" style="rounded=0;whiteSpace=wrap;html=1;" vertex="1" parent="1">
          <mxGeometry x="-280" y="636" width="100" height="50" as="geometry" />
        </mxCell>
        <mxCell id="I9MuD-WdvE4B0fHDudqE-38" value="Testes" style="rounded=0;whiteSpace=wrap;html=1;" vertex="1" parent="1">
          <mxGeometry x="-820" y="576" width="100" height="50" as="geometry" />
        </mxCell>
        <mxCell id="I9MuD-WdvE4B0fHDudqE-39" value="Planejamento" style="rounded=0;whiteSpace=wrap;html=1;" vertex="1" parent="1">
          <mxGeometry x="-640" y="576" width="100" height="50" as="geometry" />
        </mxCell>
        <mxCell id="I9MuD-WdvE4B0fHDudqE-137" style="edgeStyle=orthogonalEdgeStyle;rounded=0;orthogonalLoop=1;jettySize=auto;html=1;exitX=0.5;exitY=0;exitDx=0;exitDy=0;entryX=0.5;entryY=1;entryDx=0;entryDy=0;" edge="1" parent="1" source="I9MuD-WdvE4B0fHDudqE-40" target="I9MuD-WdvE4B0fHDudqE-13">
          <mxGeometry relative="1" as="geometry">
            <Array as="points">
              <mxPoint x="-770" y="390" />
              <mxPoint x="205" y="390" />
            </Array>
          </mxGeometry>
        </mxCell>
        <mxCell id="I9MuD-WdvE4B0fHDudqE-40" value="Eficiência energética" style="rounded=0;whiteSpace=wrap;html=1;" vertex="1" parent="1">
          <mxGeometry x="-815" y="516" width="90" height="40" as="geometry" />
        </mxCell>
        <mxCell id="I9MuD-WdvE4B0fHDudqE-41" value="Requisitos de sustentabilidade" style="rounded=0;whiteSpace=wrap;html=1;" vertex="1" parent="1">
          <mxGeometry x="-640" y="466" width="90" height="40" as="geometry" />
        </mxCell>
        <mxCell id="I9MuD-WdvE4B0fHDudqE-140" style="edgeStyle=orthogonalEdgeStyle;rounded=0;orthogonalLoop=1;jettySize=auto;html=1;exitX=0;exitY=0.25;exitDx=0;exitDy=0;entryX=0;entryY=0.75;entryDx=0;entryDy=0;" edge="1" parent="1" source="I9MuD-WdvE4B0fHDudqE-43" target="I9MuD-WdvE4B0fHDudqE-23">
          <mxGeometry relative="1" as="geometry" />
        </mxCell>
        <mxCell id="I9MuD-WdvE4B0fHDudqE-43" value="Análise do impacto ambiental" style="rounded=0;whiteSpace=wrap;html=1;" vertex="1" parent="1">
          <mxGeometry x="-640" y="516" width="90" height="40" as="geometry" />
        </mxCell>
        <mxCell id="I9MuD-WdvE4B0fHDudqE-138" style="edgeStyle=orthogonalEdgeStyle;rounded=0;orthogonalLoop=1;jettySize=auto;html=1;exitX=0.5;exitY=0;exitDx=0;exitDy=0;entryX=0;entryY=0.5;entryDx=0;entryDy=0;" edge="1" parent="1" source="I9MuD-WdvE4B0fHDudqE-44" target="I9MuD-WdvE4B0fHDudqE-23">
          <mxGeometry relative="1" as="geometry" />
        </mxCell>
        <mxCell id="I9MuD-WdvE4B0fHDudqE-44" value="Infraestrutura" style="rounded=0;whiteSpace=wrap;html=1;" vertex="1" parent="1">
          <mxGeometry x="-640" y="416" width="90" height="40" as="geometry" />
        </mxCell>
        <mxCell id="I9MuD-WdvE4B0fHDudqE-45" value="" style="endArrow=none;html=1;rounded=0;entryX=0.5;entryY=1;entryDx=0;entryDy=0;exitX=0.5;exitY=0;exitDx=0;exitDy=0;" edge="1" parent="1" source="I9MuD-WdvE4B0fHDudqE-38" target="I9MuD-WdvE4B0fHDudqE-40">
          <mxGeometry width="50" height="50" relative="1" as="geometry">
            <mxPoint x="-820" y="566" as="sourcePoint" />
            <mxPoint x="-770" y="516" as="targetPoint" />
          </mxGeometry>
        </mxCell>
        <mxCell id="I9MuD-WdvE4B0fHDudqE-46" value="" style="endArrow=none;html=1;rounded=0;entryX=0.5;entryY=1;entryDx=0;entryDy=0;exitX=0.5;exitY=0;exitDx=0;exitDy=0;" edge="1" parent="1" source="I9MuD-WdvE4B0fHDudqE-34" target="I9MuD-WdvE4B0fHDudqE-38">
          <mxGeometry width="50" height="50" relative="1" as="geometry">
            <mxPoint x="-700" y="686" as="sourcePoint" />
            <mxPoint x="-650" y="636" as="targetPoint" />
            <Array as="points">
              <mxPoint x="-660" y="640" />
              <mxPoint x="-760" y="640" />
              <mxPoint x="-770" y="640" />
            </Array>
          </mxGeometry>
        </mxCell>
        <mxCell id="I9MuD-WdvE4B0fHDudqE-47" value="" style="endArrow=none;html=1;rounded=0;entryX=0.5;entryY=1;entryDx=0;entryDy=0;exitX=0.5;exitY=0;exitDx=0;exitDy=0;" edge="1" parent="1" source="I9MuD-WdvE4B0fHDudqE-34" target="I9MuD-WdvE4B0fHDudqE-39">
          <mxGeometry width="50" height="50" relative="1" as="geometry">
            <mxPoint x="-630" y="686" as="sourcePoint" />
            <mxPoint x="-580" y="636" as="targetPoint" />
            <Array as="points">
              <mxPoint x="-660" y="640" />
              <mxPoint x="-590" y="640" />
            </Array>
          </mxGeometry>
        </mxCell>
        <mxCell id="I9MuD-WdvE4B0fHDudqE-49" value="" style="endArrow=none;html=1;rounded=0;entryX=0.6;entryY=1;entryDx=0;entryDy=0;exitX=0.5;exitY=0;exitDx=0;exitDy=0;entryPerimeter=0;" edge="1" parent="1" source="I9MuD-WdvE4B0fHDudqE-29" target="I9MuD-WdvE4B0fHDudqE-32">
          <mxGeometry width="50" height="50" relative="1" as="geometry">
            <mxPoint x="-70" y="870" as="sourcePoint" />
            <mxPoint x="-20" y="820" as="targetPoint" />
            <Array as="points">
              <mxPoint x="-40" y="840" />
              <mxPoint x="60" y="840" />
              <mxPoint x="80" y="840" />
              <mxPoint x="385" y="840" />
            </Array>
          </mxGeometry>
        </mxCell>
        <mxCell id="I9MuD-WdvE4B0fHDudqE-50" value="" style="endArrow=none;html=1;rounded=0;entryX=0.5;entryY=1;entryDx=0;entryDy=0;" edge="1" parent="1" target="I9MuD-WdvE4B0fHDudqE-31">
          <mxGeometry width="50" height="50" relative="1" as="geometry">
            <mxPoint x="-40" y="860" as="sourcePoint" />
            <mxPoint x="-90" y="840" as="targetPoint" />
            <Array as="points">
              <mxPoint x="-40" y="840" />
              <mxPoint x="-280" y="840" />
              <mxPoint x="-520" y="840" />
            </Array>
          </mxGeometry>
        </mxCell>
        <mxCell id="I9MuD-WdvE4B0fHDudqE-51" value="" style="endArrow=none;html=1;rounded=0;entryX=0.56;entryY=1;entryDx=0;entryDy=0;exitX=0.5;exitY=0;exitDx=0;exitDy=0;entryPerimeter=0;" edge="1" parent="1" source="I9MuD-WdvE4B0fHDudqE-29" target="I9MuD-WdvE4B0fHDudqE-33">
          <mxGeometry width="50" height="50" relative="1" as="geometry">
            <mxPoint y="860" as="sourcePoint" />
            <mxPoint x="50" y="810" as="targetPoint" />
            <Array as="points">
              <mxPoint x="-40" y="840" />
              <mxPoint x="576" y="840" />
              <mxPoint x="716" y="840" />
              <mxPoint x="883" y="840" />
            </Array>
          </mxGeometry>
        </mxCell>
        <mxCell id="I9MuD-WdvE4B0fHDudqE-141" style="edgeStyle=orthogonalEdgeStyle;rounded=0;orthogonalLoop=1;jettySize=auto;html=1;exitX=0;exitY=0.75;exitDx=0;exitDy=0;entryX=0.5;entryY=1;entryDx=0;entryDy=0;" edge="1" parent="1" source="I9MuD-WdvE4B0fHDudqE-52" target="I9MuD-WdvE4B0fHDudqE-22">
          <mxGeometry relative="1" as="geometry">
            <Array as="points">
              <mxPoint x="-485" y="606" />
              <mxPoint x="-485" y="370" />
              <mxPoint x="-105" y="370" />
            </Array>
          </mxGeometry>
        </mxCell>
        <mxCell id="I9MuD-WdvE4B0fHDudqE-52" value="Levantamento de requisitos" style="rounded=0;whiteSpace=wrap;html=1;" vertex="1" parent="1">
          <mxGeometry x="-465" y="576" width="90" height="40" as="geometry" />
        </mxCell>
        <mxCell id="I9MuD-WdvE4B0fHDudqE-144" style="edgeStyle=orthogonalEdgeStyle;rounded=0;orthogonalLoop=1;jettySize=auto;html=1;exitX=0;exitY=0.75;exitDx=0;exitDy=0;entryX=0.25;entryY=1;entryDx=0;entryDy=0;" edge="1" parent="1">
          <mxGeometry relative="1" as="geometry">
            <mxPoint x="-465" y="556" as="sourcePoint" />
            <mxPoint x="-127.5" y="350" as="targetPoint" />
            <Array as="points">
              <mxPoint x="-485" y="556" />
              <mxPoint x="-485" y="370" />
              <mxPoint x="-127" y="370" />
            </Array>
          </mxGeometry>
        </mxCell>
        <mxCell id="I9MuD-WdvE4B0fHDudqE-53" value="Anáilise dos requisitos não funcionais" style="rounded=0;whiteSpace=wrap;html=1;" vertex="1" parent="1">
          <mxGeometry x="-465" y="526" width="90" height="40" as="geometry" />
        </mxCell>
        <mxCell id="I9MuD-WdvE4B0fHDudqE-54" value="Anáilise dos requisitos&amp;nbsp; funcionais" style="rounded=0;whiteSpace=wrap;html=1;" vertex="1" parent="1">
          <mxGeometry x="-466" y="466" width="90" height="40" as="geometry" />
        </mxCell>
        <mxCell id="I9MuD-WdvE4B0fHDudqE-55" value="Validação dos requisitos" style="rounded=0;whiteSpace=wrap;html=1;" vertex="1" parent="1">
          <mxGeometry x="-466" y="410" width="90" height="40" as="geometry" />
        </mxCell>
        <mxCell id="I9MuD-WdvE4B0fHDudqE-56" value="Arquitetura do software" style="rounded=0;whiteSpace=wrap;html=1;" vertex="1" parent="1">
          <mxGeometry x="-350" y="566" width="100" height="50" as="geometry" />
        </mxCell>
        <mxCell id="I9MuD-WdvE4B0fHDudqE-57" value="Interface do usuário (UI)" style="rounded=0;whiteSpace=wrap;html=1;" vertex="1" parent="1">
          <mxGeometry x="-220" y="566" width="100" height="50" as="geometry" />
        </mxCell>
        <mxCell id="I9MuD-WdvE4B0fHDudqE-58" value="" style="endArrow=none;html=1;rounded=0;exitX=0.5;exitY=0;exitDx=0;exitDy=0;" edge="1" parent="1" source="I9MuD-WdvE4B0fHDudqE-36">
          <mxGeometry width="50" height="50" relative="1" as="geometry">
            <mxPoint x="-330" y="660" as="sourcePoint" />
            <mxPoint x="-300" y="616" as="targetPoint" />
            <Array as="points">
              <mxPoint x="-230" y="630" />
              <mxPoint x="-300" y="630" />
            </Array>
          </mxGeometry>
        </mxCell>
        <mxCell id="I9MuD-WdvE4B0fHDudqE-59" value="" style="endArrow=none;html=1;rounded=0;entryX=0.5;entryY=1;entryDx=0;entryDy=0;exitX=0.5;exitY=0;exitDx=0;exitDy=0;" edge="1" parent="1" source="I9MuD-WdvE4B0fHDudqE-36" target="I9MuD-WdvE4B0fHDudqE-57">
          <mxGeometry width="50" height="50" relative="1" as="geometry">
            <mxPoint x="-200" y="680" as="sourcePoint" />
            <mxPoint x="-150" y="630" as="targetPoint" />
            <Array as="points">
              <mxPoint x="-230" y="630" />
              <mxPoint x="-170" y="630" />
            </Array>
          </mxGeometry>
        </mxCell>
        <mxCell id="I9MuD-WdvE4B0fHDudqE-149" style="edgeStyle=orthogonalEdgeStyle;rounded=0;orthogonalLoop=1;jettySize=auto;html=1;exitX=0;exitY=0.25;exitDx=0;exitDy=0;entryX=0.25;entryY=1;entryDx=0;entryDy=0;" edge="1" parent="1">
          <mxGeometry relative="1" as="geometry">
            <mxPoint x="-334" y="516" as="sourcePoint" />
            <mxPoint x="82.5" y="350" as="targetPoint" />
            <Array as="points">
              <mxPoint x="-354" y="516" />
              <mxPoint x="-354" y="380" />
              <mxPoint x="83" y="380" />
            </Array>
          </mxGeometry>
        </mxCell>
        <mxCell id="I9MuD-WdvE4B0fHDudqE-60" value="Tecnologias" style="rounded=0;whiteSpace=wrap;html=1;" vertex="1" parent="1">
          <mxGeometry x="-340" y="506" width="90" height="40" as="geometry" />
        </mxCell>
        <mxCell id="I9MuD-WdvE4B0fHDudqE-61" value="Estrutur&lt;span style=&quot;color: rgba(0, 0, 0, 0); font-family: monospace; font-size: 0px; text-align: start; text-wrap-mode: nowrap;&quot;&gt;%3CmxGraphModel%3E%3Croot%3E%3CmxCell%20id%3D%220%22%2F%3E%3CmxCell%20id%3D%221%22%20parent%3D%220%22%2F%3E%3CmxCell%20id%3D%222%22%20value%3D%22Tecnologias%22%20style%3D%22rounded%3D0%3BwhiteSpace%3Dwrap%3Bhtml%3D1%3B%22%20vertex%3D%221%22%20parent%3D%221%22%3E%3CmxGeometry%20x%3D%22-340%22%20y%3D%22506%22%20width%3D%2290%22%20height%3D%2240%22%20as%3D%22geometry%22%2F%3E%3C%2FmxCell%3E%3C%2Froot%3E%3C%2FmxGraphModel%3E&lt;/span&gt;a do banco de dados&lt;span style=&quot;color: rgba(0, 0, 0, 0); font-family: monospace; font-size: 0px; text-align: start; text-wrap-mode: nowrap;&quot;&gt;%3CmxGraphModel%3E%3Croot%3E%3CmxCell%20id%3D%220%22%2F%3E%3CmxCell%20id%3D%221%22%20parent%3D%220%22%2F%3E%3CmxCell%20id%3D%222%22%20value%3D%22Tecnologias%22%20style%3D%22rounded%3D0%3BwhiteSpace%3Dwrap%3Bhtml%3D1%3B%22%20vertex%3D%221%22%20parent%3D%221%22%3E%3CmxGeometry%20x%3D%22-340%22%20y%3D%22506%22%20width%3D%2290%22%20height%3D%2240%22%20as%3D%22geometry%22%2F%3E%3C%2FmxCell%3E%3C%2Froot%3E%3C%2FmxGraphModel%3E&lt;/span&gt;" style="rounded=0;whiteSpace=wrap;html=1;" vertex="1" parent="1">
          <mxGeometry x="-340" y="456" width="90" height="40" as="geometry" />
        </mxCell>
        <mxCell id="I9MuD-WdvE4B0fHDudqE-147" style="edgeStyle=orthogonalEdgeStyle;rounded=0;orthogonalLoop=1;jettySize=auto;html=1;exitX=0;exitY=0.25;exitDx=0;exitDy=0;entryX=0.5;entryY=1;entryDx=0;entryDy=0;" edge="1" parent="1">
          <mxGeometry relative="1" as="geometry">
            <mxPoint x="-334" y="420" as="sourcePoint" />
            <mxPoint x="105" y="350" as="targetPoint" />
            <Array as="points">
              <mxPoint x="-354" y="420" />
              <mxPoint x="-354" y="380" />
              <mxPoint x="105" y="380" />
            </Array>
          </mxGeometry>
        </mxCell>
        <mxCell id="I9MuD-WdvE4B0fHDudqE-62" value="Estrutur&lt;span style=&quot;color: rgba(0, 0, 0, 0); font-family: monospace; font-size: 0px; text-align: start; text-wrap-mode: nowrap;&quot;&gt;%3CmxGraphModel%3E%3Croot%3E%3CmxCell%20id%3D%220%22%2F%3E%3CmxCell%20id%3D%221%22%20parent%3D%220%22%2F%3E%3CmxCell%20id%3D%222%22%20value%3D%22Tecnologias%22%20style%3D%22rounded%3D0%3BwhiteSpace%3Dwrap%3Bhtml%3D1%3B%22%20vertex%3D%221%22%20parent%3D%221%22%3E%3CmxGeometry%20x%3D%22-340%22%20y%3D%22506%22%20width%3D%2290%22%20height%3D%2240%22%20as%3D%22geometry%22%2F%3E%3C%2FmxCell%3E%3C%2Froot%3E%3C%2FmxGraphModel%3E&lt;/span&gt;a de servidores e hospedagem&lt;span style=&quot;color: rgba(0, 0, 0, 0); font-family: monospace; font-size: 0px; text-align: start; text-wrap-mode: nowrap;&quot;&gt;%3CmxGraphModel%3E%3Croot%3E%3CmxCell%20id%3D%220%22%2F%3E%3CmxCell%20id%3D%221%22%20parent%3D%220%22%2F%3E%3CmxCell%20id%3D%222%22%20value%3D%22Tecnologias%22%20style%3D%22rounded%3D0%3BwhiteSpace%3Dwrap%3Bhtml%3D1%3B%22%20vertex%3D%221%22%20parent%3D%221%22%3E%3CmxGeometry%20x%3D%22-340%22%20y%3D%22506%22%20width%3D%2290%22%20height%3D%2240%22%20as%3D%22geometry%22%2F%3E%3C%2FmxCell%3E%3C%2Froot%3E%3C%2FmxGraphModel%3E&lt;/span&gt;" style="rounded=0;whiteSpace=wrap;html=1;" vertex="1" parent="1">
          <mxGeometry x="-340" y="410" width="90" height="40" as="geometry" />
        </mxCell>
        <mxCell id="I9MuD-WdvE4B0fHDudqE-63" value="Prototipagem" style="rounded=0;whiteSpace=wrap;html=1;" vertex="1" parent="1">
          <mxGeometry x="-200" y="506" width="90" height="40" as="geometry" />
        </mxCell>
        <mxCell id="I9MuD-WdvE4B0fHDudqE-154" style="edgeStyle=orthogonalEdgeStyle;rounded=0;orthogonalLoop=1;jettySize=auto;html=1;exitX=0;exitY=0.25;exitDx=0;exitDy=0;entryX=0.5;entryY=1;entryDx=0;entryDy=0;" edge="1" parent="1" source="I9MuD-WdvE4B0fHDudqE-64" target="I9MuD-WdvE4B0fHDudqE-21">
          <mxGeometry relative="1" as="geometry" />
        </mxCell>
        <mxCell id="I9MuD-WdvE4B0fHDudqE-64" value="Layout" style="rounded=0;whiteSpace=wrap;html=1;" vertex="1" parent="1">
          <mxGeometry x="-200" y="456" width="90" height="40" as="geometry" />
        </mxCell>
        <mxCell id="I9MuD-WdvE4B0fHDudqE-156" style="edgeStyle=orthogonalEdgeStyle;rounded=0;orthogonalLoop=1;jettySize=auto;html=1;exitX=0;exitY=0.25;exitDx=0;exitDy=0;entryX=0.75;entryY=1;entryDx=0;entryDy=0;exitPerimeter=0;" edge="1" parent="1" source="I9MuD-WdvE4B0fHDudqE-65">
          <mxGeometry relative="1" as="geometry">
            <mxPoint x="-203" y="420" as="sourcePoint" />
            <mxPoint x="-295.5" y="350" as="targetPoint" />
            <Array as="points">
              <mxPoint x="-213" y="420" />
              <mxPoint x="-213" y="400" />
              <mxPoint x="-295" y="400" />
            </Array>
          </mxGeometry>
        </mxCell>
        <mxCell id="I9MuD-WdvE4B0fHDudqE-65" value="Design de experiência do usuário (UX)" style="rounded=0;whiteSpace=wrap;html=1;" vertex="1" parent="1">
          <mxGeometry x="-200" y="410" width="90" height="40" as="geometry" />
        </mxCell>
        <mxCell id="I9MuD-WdvE4B0fHDudqE-66" value="" style="endArrow=none;html=1;rounded=0;exitX=0.5;exitY=0;exitDx=0;exitDy=0;entryX=0.5;entryY=1;entryDx=0;entryDy=0;" edge="1" parent="1" source="I9MuD-WdvE4B0fHDudqE-31" target="I9MuD-WdvE4B0fHDudqE-34">
          <mxGeometry width="50" height="50" relative="1" as="geometry">
            <mxPoint x="-710" y="750" as="sourcePoint" />
            <mxPoint x="-660" y="700" as="targetPoint" />
            <Array as="points">
              <mxPoint x="-520" y="720" />
              <mxPoint x="-660" y="720" />
            </Array>
          </mxGeometry>
        </mxCell>
        <mxCell id="I9MuD-WdvE4B0fHDudqE-67" value="" style="endArrow=none;html=1;rounded=0;entryX=0.5;entryY=1;entryDx=0;entryDy=0;exitX=0.5;exitY=0;exitDx=0;exitDy=0;" edge="1" parent="1" source="I9MuD-WdvE4B0fHDudqE-31" target="I9MuD-WdvE4B0fHDudqE-35">
          <mxGeometry width="50" height="50" relative="1" as="geometry">
            <mxPoint x="-520" y="760" as="sourcePoint" />
            <mxPoint x="-470" y="710" as="targetPoint" />
            <Array as="points">
              <mxPoint x="-520" y="720" />
              <mxPoint x="-420" y="720" />
            </Array>
          </mxGeometry>
        </mxCell>
        <mxCell id="I9MuD-WdvE4B0fHDudqE-68" value="" style="endArrow=none;html=1;rounded=0;entryX=0.5;entryY=1;entryDx=0;entryDy=0;" edge="1" parent="1" target="I9MuD-WdvE4B0fHDudqE-36">
          <mxGeometry width="50" height="50" relative="1" as="geometry">
            <mxPoint x="-520" y="740" as="sourcePoint" />
            <mxPoint x="-310" y="740" as="targetPoint" />
            <Array as="points">
              <mxPoint x="-520" y="720" />
              <mxPoint x="-230" y="720" />
            </Array>
          </mxGeometry>
        </mxCell>
        <mxCell id="I9MuD-WdvE4B0fHDudqE-69" value="Desenvolvimento" style="rounded=0;whiteSpace=wrap;html=1;" vertex="1" parent="1">
          <mxGeometry x="20" y="636" width="100" height="50" as="geometry" />
        </mxCell>
        <mxCell id="I9MuD-WdvE4B0fHDudqE-70" value="Front-end" style="rounded=0;whiteSpace=wrap;html=1;" vertex="1" parent="1">
          <mxGeometry x="-55" y="566" width="100" height="50" as="geometry" />
        </mxCell>
        <mxCell id="I9MuD-WdvE4B0fHDudqE-71" value="Back-end" style="rounded=0;whiteSpace=wrap;html=1;" vertex="1" parent="1">
          <mxGeometry x="65" y="566" width="100" height="50" as="geometry" />
        </mxCell>
        <mxCell id="I9MuD-WdvE4B0fHDudqE-72" value="Banco de dados" style="rounded=0;whiteSpace=wrap;html=1;" vertex="1" parent="1">
          <mxGeometry x="185" y="566" width="100" height="50" as="geometry" />
        </mxCell>
        <mxCell id="I9MuD-WdvE4B0fHDudqE-73" value="Testes" style="rounded=0;whiteSpace=wrap;html=1;" vertex="1" parent="1">
          <mxGeometry x="330" y="636" width="100" height="50" as="geometry" />
        </mxCell>
        <mxCell id="I9MuD-WdvE4B0fHDudqE-74" value="Implementação do layout" style="rounded=0;whiteSpace=wrap;html=1;" vertex="1" parent="1">
          <mxGeometry x="-60" y="506" width="90" height="40" as="geometry" />
        </mxCell>
        <mxCell id="I9MuD-WdvE4B0fHDudqE-75" value="Integração com o back-end" style="rounded=0;whiteSpace=wrap;html=1;" vertex="1" parent="1">
          <mxGeometry x="-60" y="456" width="90" height="40" as="geometry" />
        </mxCell>
        <mxCell id="I9MuD-WdvE4B0fHDudqE-76" value="Desenvolvimento de APIs" style="rounded=0;whiteSpace=wrap;html=1;" vertex="1" parent="1">
          <mxGeometry x="70" y="506" width="90" height="40" as="geometry" />
        </mxCell>
        <mxCell id="I9MuD-WdvE4B0fHDudqE-162" style="edgeStyle=orthogonalEdgeStyle;rounded=0;orthogonalLoop=1;jettySize=auto;html=1;exitX=0;exitY=0.25;exitDx=0;exitDy=0;entryX=0.75;entryY=1;entryDx=0;entryDy=0;" edge="1" parent="1" source="I9MuD-WdvE4B0fHDudqE-77" target="I9MuD-WdvE4B0fHDudqE-22">
          <mxGeometry relative="1" as="geometry">
            <Array as="points">
              <mxPoint x="40" y="466" />
              <mxPoint x="40" y="440" />
              <mxPoint x="-82" y="440" />
            </Array>
          </mxGeometry>
        </mxCell>
        <mxCell id="I9MuD-WdvE4B0fHDudqE-77" value="Implementação da lógica de negócios" style="rounded=0;whiteSpace=wrap;html=1;" vertex="1" parent="1">
          <mxGeometry x="70" y="456" width="90" height="40" as="geometry" />
        </mxCell>
        <mxCell id="I9MuD-WdvE4B0fHDudqE-78" value="Integração com o banco de dados" style="rounded=0;whiteSpace=wrap;html=1;" vertex="1" parent="1">
          <mxGeometry x="70" y="410" width="90" height="40" as="geometry" />
        </mxCell>
        <mxCell id="I9MuD-WdvE4B0fHDudqE-164" style="edgeStyle=orthogonalEdgeStyle;rounded=0;orthogonalLoop=1;jettySize=auto;html=1;exitX=0.25;exitY=0;exitDx=0;exitDy=0;entryX=0.25;entryY=1;entryDx=0;entryDy=0;" edge="1" parent="1" source="I9MuD-WdvE4B0fHDudqE-79" target="I9MuD-WdvE4B0fHDudqE-11">
          <mxGeometry relative="1" as="geometry">
            <Array as="points">
              <mxPoint x="213" y="400" />
              <mxPoint x="-27" y="400" />
            </Array>
          </mxGeometry>
        </mxCell>
        <mxCell id="I9MuD-WdvE4B0fHDudqE-79" value="Implementar" style="rounded=0;whiteSpace=wrap;html=1;" vertex="1" parent="1">
          <mxGeometry x="190" y="506" width="90" height="40" as="geometry" />
        </mxCell>
        <mxCell id="I9MuD-WdvE4B0fHDudqE-80" value="" style="endArrow=none;html=1;rounded=0;entryX=0;entryY=0.5;entryDx=0;entryDy=0;exitX=0.399;exitY=0;exitDx=0;exitDy=0;exitPerimeter=0;" edge="1" parent="1" source="I9MuD-WdvE4B0fHDudqE-39" target="I9MuD-WdvE4B0fHDudqE-44">
          <mxGeometry width="50" height="50" relative="1" as="geometry">
            <mxPoint x="-620" y="620" as="sourcePoint" />
            <mxPoint x="-570" y="570" as="targetPoint" />
            <Array as="points">
              <mxPoint x="-600" y="570" />
              <mxPoint x="-680" y="570" />
              <mxPoint x="-680" y="520" />
              <mxPoint x="-680" y="436" />
            </Array>
          </mxGeometry>
        </mxCell>
        <mxCell id="I9MuD-WdvE4B0fHDudqE-81" value="" style="endArrow=none;html=1;rounded=0;entryX=0;entryY=0.5;entryDx=0;entryDy=0;" edge="1" parent="1" target="I9MuD-WdvE4B0fHDudqE-41">
          <mxGeometry width="50" height="50" relative="1" as="geometry">
            <mxPoint x="-680" y="486" as="sourcePoint" />
            <mxPoint x="-630" y="490" as="targetPoint" />
          </mxGeometry>
        </mxCell>
        <mxCell id="I9MuD-WdvE4B0fHDudqE-82" value="" style="endArrow=none;html=1;rounded=0;entryX=0;entryY=0.5;entryDx=0;entryDy=0;" edge="1" parent="1">
          <mxGeometry width="50" height="50" relative="1" as="geometry">
            <mxPoint x="-680" y="534.52" as="sourcePoint" />
            <mxPoint x="-640" y="534.52" as="targetPoint" />
          </mxGeometry>
        </mxCell>
        <mxCell id="I9MuD-WdvE4B0fHDudqE-84" value="" style="endArrow=none;html=1;rounded=0;entryX=0.5;entryY=1;entryDx=0;entryDy=0;" edge="1" parent="1" target="I9MuD-WdvE4B0fHDudqE-69">
          <mxGeometry width="50" height="50" relative="1" as="geometry">
            <mxPoint x="380" y="720" as="sourcePoint" />
            <mxPoint x="80" y="700" as="targetPoint" />
            <Array as="points">
              <mxPoint x="70" y="720" />
            </Array>
          </mxGeometry>
        </mxCell>
        <mxCell id="I9MuD-WdvE4B0fHDudqE-86" value="Erros" style="rounded=0;whiteSpace=wrap;html=1;" vertex="1" parent="1">
          <mxGeometry x="690" y="636" width="100" height="50" as="geometry" />
        </mxCell>
        <mxCell id="I9MuD-WdvE4B0fHDudqE-87" value="Unitários" style="rounded=0;whiteSpace=wrap;html=1;" vertex="1" parent="1">
          <mxGeometry x="330" y="576" width="90" height="40" as="geometry" />
        </mxCell>
        <mxCell id="I9MuD-WdvE4B0fHDudqE-88" value="Usabilidade" style="rounded=0;whiteSpace=wrap;html=1;" vertex="1" parent="1">
          <mxGeometry x="330" y="526" width="90" height="40" as="geometry" />
        </mxCell>
        <mxCell id="I9MuD-WdvE4B0fHDudqE-166" style="edgeStyle=orthogonalEdgeStyle;rounded=0;orthogonalLoop=1;jettySize=auto;html=1;exitX=0;exitY=0.25;exitDx=0;exitDy=0;entryX=0.75;entryY=1;entryDx=0;entryDy=0;" edge="1" parent="1" source="I9MuD-WdvE4B0fHDudqE-89" target="I9MuD-WdvE4B0fHDudqE-13">
          <mxGeometry relative="1" as="geometry" />
        </mxCell>
        <mxCell id="I9MuD-WdvE4B0fHDudqE-89" value="Integração" style="rounded=0;whiteSpace=wrap;html=1;" vertex="1" parent="1">
          <mxGeometry x="330" y="481" width="90" height="40" as="geometry" />
        </mxCell>
        <mxCell id="I9MuD-WdvE4B0fHDudqE-90" value="Carga" style="rounded=0;whiteSpace=wrap;html=1;" vertex="1" parent="1">
          <mxGeometry x="330" y="436" width="90" height="40" as="geometry" />
        </mxCell>
        <mxCell id="I9MuD-WdvE4B0fHDudqE-91" value="Segurança" style="rounded=0;whiteSpace=wrap;html=1;" vertex="1" parent="1">
          <mxGeometry x="450" y="566" width="100" height="50" as="geometry" />
        </mxCell>
        <mxCell id="I9MuD-WdvE4B0fHDudqE-169" style="edgeStyle=orthogonalEdgeStyle;rounded=0;orthogonalLoop=1;jettySize=auto;html=1;exitX=0.5;exitY=0;exitDx=0;exitDy=0;entryX=1;entryY=0.75;entryDx=0;entryDy=0;" edge="1" parent="1" source="I9MuD-WdvE4B0fHDudqE-92" target="I9MuD-WdvE4B0fHDudqE-18">
          <mxGeometry relative="1" as="geometry" />
        </mxCell>
        <mxCell id="I9MuD-WdvE4B0fHDudqE-92" value="Teste de vulnerabilidade" style="rounded=0;whiteSpace=wrap;html=1;" vertex="1" parent="1">
          <mxGeometry x="450" y="506" width="90" height="40" as="geometry" />
        </mxCell>
        <mxCell id="I9MuD-WdvE4B0fHDudqE-93" value="Compatibilidade" style="rounded=0;whiteSpace=wrap;html=1;" vertex="1" parent="1">
          <mxGeometry x="570" y="566" width="100" height="50" as="geometry" />
        </mxCell>
        <mxCell id="I9MuD-WdvE4B0fHDudqE-94" value="Navegadores" style="rounded=0;whiteSpace=wrap;html=1;" vertex="1" parent="1">
          <mxGeometry x="570" y="506" width="90" height="40" as="geometry" />
        </mxCell>
        <mxCell id="I9MuD-WdvE4B0fHDudqE-95" value="Dispositivos móveis" style="rounded=0;whiteSpace=wrap;html=1;" vertex="1" parent="1">
          <mxGeometry x="570" y="456" width="90" height="40" as="geometry" />
        </mxCell>
        <mxCell id="I9MuD-WdvE4B0fHDudqE-172" style="edgeStyle=orthogonalEdgeStyle;rounded=0;orthogonalLoop=1;jettySize=auto;html=1;exitX=0.5;exitY=0;exitDx=0;exitDy=0;entryX=1;entryY=1;entryDx=0;entryDy=0;" edge="1" parent="1" source="I9MuD-WdvE4B0fHDudqE-96" target="I9MuD-WdvE4B0fHDudqE-22">
          <mxGeometry relative="1" as="geometry">
            <Array as="points">
              <mxPoint x="735" y="370" />
              <mxPoint x="-60" y="370" />
            </Array>
          </mxGeometry>
        </mxCell>
        <mxCell id="I9MuD-WdvE4B0fHDudqE-96" value="Correção" style="rounded=0;whiteSpace=wrap;html=1;" vertex="1" parent="1">
          <mxGeometry x="690" y="576" width="90" height="40" as="geometry" />
        </mxCell>
        <mxCell id="I9MuD-WdvE4B0fHDudqE-175" style="edgeStyle=orthogonalEdgeStyle;rounded=0;orthogonalLoop=1;jettySize=auto;html=1;exitX=1;exitY=0.25;exitDx=0;exitDy=0;entryX=0;entryY=1;entryDx=0;entryDy=0;" edge="1" parent="1" source="I9MuD-WdvE4B0fHDudqE-97" target="I9MuD-WdvE4B0fHDudqE-23">
          <mxGeometry relative="1" as="geometry">
            <Array as="points">
              <mxPoint x="942" y="671" />
              <mxPoint x="942" y="380" />
              <mxPoint x="-495" y="380" />
            </Array>
          </mxGeometry>
        </mxCell>
        <mxCell id="I9MuD-WdvE4B0fHDudqE-97" value="Implantação do sistema em ambiente real" style="rounded=0;whiteSpace=wrap;html=1;" vertex="1" parent="1">
          <mxGeometry x="832" y="661" width="90" height="40" as="geometry" />
        </mxCell>
        <mxCell id="I9MuD-WdvE4B0fHDudqE-98" value="Reunião de conclusão" style="rounded=0;whiteSpace=wrap;html=1;" vertex="1" parent="1">
          <mxGeometry x="832" y="610" width="90" height="40" as="geometry" />
        </mxCell>
        <mxCell id="I9MuD-WdvE4B0fHDudqE-99" value="" style="endArrow=none;html=1;rounded=0;entryX=0;entryY=0.5;entryDx=0;entryDy=0;" edge="1" parent="1" target="I9MuD-WdvE4B0fHDudqE-98">
          <mxGeometry width="50" height="50" relative="1" as="geometry">
            <mxPoint x="880" y="730" as="sourcePoint" />
            <mxPoint x="830" y="630" as="targetPoint" />
            <Array as="points">
              <mxPoint x="880" y="720" />
              <mxPoint x="810" y="720" />
              <mxPoint x="810" y="630" />
            </Array>
          </mxGeometry>
        </mxCell>
        <mxCell id="I9MuD-WdvE4B0fHDudqE-103" value="" style="endArrow=none;html=1;rounded=0;entryX=-0.003;entryY=0.472;entryDx=0;entryDy=0;entryPerimeter=0;" edge="1" parent="1" target="I9MuD-WdvE4B0fHDudqE-97">
          <mxGeometry width="50" height="50" relative="1" as="geometry">
            <mxPoint x="810" y="680" as="sourcePoint" />
            <mxPoint x="830" y="680" as="targetPoint" />
          </mxGeometry>
        </mxCell>
        <mxCell id="I9MuD-WdvE4B0fHDudqE-104" value="" style="endArrow=none;html=1;rounded=0;entryX=0.5;entryY=1;entryDx=0;entryDy=0;" edge="1" parent="1" target="I9MuD-WdvE4B0fHDudqE-86">
          <mxGeometry width="50" height="50" relative="1" as="geometry">
            <mxPoint x="380" y="720" as="sourcePoint" />
            <mxPoint x="740" y="690" as="targetPoint" />
            <Array as="points">
              <mxPoint x="740" y="720" />
            </Array>
          </mxGeometry>
        </mxCell>
        <mxCell id="I9MuD-WdvE4B0fHDudqE-105" value="" style="endArrow=none;html=1;rounded=0;entryX=0.5;entryY=1;entryDx=0;entryDy=0;exitX=0.55;exitY=0.002;exitDx=0;exitDy=0;exitPerimeter=0;" edge="1" parent="1" source="I9MuD-WdvE4B0fHDudqE-32" target="I9MuD-WdvE4B0fHDudqE-73">
          <mxGeometry width="50" height="50" relative="1" as="geometry">
            <mxPoint x="350" y="750" as="sourcePoint" />
            <mxPoint x="400" y="700" as="targetPoint" />
          </mxGeometry>
        </mxCell>
        <mxCell id="I9MuD-WdvE4B0fHDudqE-106" value="" style="endArrow=none;html=1;rounded=0;exitX=0.5;exitY=0;exitDx=0;exitDy=0;entryX=0.547;entryY=0.995;entryDx=0;entryDy=0;entryPerimeter=0;" edge="1" parent="1" source="I9MuD-WdvE4B0fHDudqE-69" target="I9MuD-WdvE4B0fHDudqE-70">
          <mxGeometry width="50" height="50" relative="1" as="geometry">
            <mxPoint x="-50" y="670" as="sourcePoint" />
            <mxPoint y="620" as="targetPoint" />
            <Array as="points">
              <mxPoint x="70" y="630" />
              <mxPoint y="630" />
            </Array>
          </mxGeometry>
        </mxCell>
        <mxCell id="I9MuD-WdvE4B0fHDudqE-107" value="" style="endArrow=none;html=1;rounded=0;entryX=0.547;entryY=0.995;entryDx=0;entryDy=0;entryPerimeter=0;" edge="1" parent="1" target="I9MuD-WdvE4B0fHDudqE-71">
          <mxGeometry width="50" height="50" relative="1" as="geometry">
            <mxPoint x="70" y="630" as="sourcePoint" />
            <mxPoint x="120" y="620" as="targetPoint" />
            <Array as="points">
              <mxPoint x="120" y="630" />
            </Array>
          </mxGeometry>
        </mxCell>
        <mxCell id="I9MuD-WdvE4B0fHDudqE-108" value="" style="endArrow=none;html=1;rounded=0;" edge="1" parent="1">
          <mxGeometry width="50" height="50" relative="1" as="geometry">
            <mxPoint x="120" y="630" as="sourcePoint" />
            <mxPoint x="240" y="616" as="targetPoint" />
            <Array as="points">
              <mxPoint x="240" y="630" />
            </Array>
          </mxGeometry>
        </mxCell>
        <mxCell id="I9MuD-WdvE4B0fHDudqE-109" value="" style="endArrow=none;html=1;rounded=0;entryX=0;entryY=0.5;entryDx=0;entryDy=0;" edge="1" parent="1" target="I9MuD-WdvE4B0fHDudqE-75">
          <mxGeometry width="50" height="50" relative="1" as="geometry">
            <mxPoint x="-55" y="590" as="sourcePoint" />
            <mxPoint x="-60" y="490" as="targetPoint" />
            <Array as="points">
              <mxPoint x="-80" y="590" />
              <mxPoint x="-80" y="476" />
            </Array>
          </mxGeometry>
        </mxCell>
        <mxCell id="I9MuD-WdvE4B0fHDudqE-110" value="" style="endArrow=none;html=1;rounded=0;entryX=0;entryY=0.5;entryDx=0;entryDy=0;" edge="1" parent="1" target="I9MuD-WdvE4B0fHDudqE-74">
          <mxGeometry width="50" height="50" relative="1" as="geometry">
            <mxPoint x="-80" y="526" as="sourcePoint" />
            <mxPoint x="-60" y="530" as="targetPoint" />
            <Array as="points" />
          </mxGeometry>
        </mxCell>
        <mxCell id="I9MuD-WdvE4B0fHDudqE-111" value="" style="endArrow=none;html=1;rounded=0;exitX=0;exitY=0.5;exitDx=0;exitDy=0;entryX=0;entryY=0.5;entryDx=0;entryDy=0;" edge="1" parent="1" source="I9MuD-WdvE4B0fHDudqE-71" target="I9MuD-WdvE4B0fHDudqE-78">
          <mxGeometry width="50" height="50" relative="1" as="geometry">
            <mxPoint x="10" y="480" as="sourcePoint" />
            <mxPoint x="60" y="430" as="targetPoint" />
            <Array as="points">
              <mxPoint x="50" y="591" />
              <mxPoint x="50" y="430" />
            </Array>
          </mxGeometry>
        </mxCell>
        <mxCell id="I9MuD-WdvE4B0fHDudqE-112" value="" style="endArrow=none;html=1;rounded=0;" edge="1" parent="1">
          <mxGeometry width="50" height="50" relative="1" as="geometry">
            <mxPoint x="50" y="480" as="sourcePoint" />
            <mxPoint x="70" y="480" as="targetPoint" />
          </mxGeometry>
        </mxCell>
        <mxCell id="I9MuD-WdvE4B0fHDudqE-113" value="" style="endArrow=none;html=1;rounded=0;" edge="1" parent="1">
          <mxGeometry width="50" height="50" relative="1" as="geometry">
            <mxPoint x="50" y="521" as="sourcePoint" />
            <mxPoint x="70" y="521" as="targetPoint" />
          </mxGeometry>
        </mxCell>
        <mxCell id="I9MuD-WdvE4B0fHDudqE-114" value="" style="endArrow=none;html=1;rounded=0;exitX=0.5;exitY=0;exitDx=0;exitDy=0;entryX=0.5;entryY=1;entryDx=0;entryDy=0;" edge="1" parent="1" source="I9MuD-WdvE4B0fHDudqE-72" target="I9MuD-WdvE4B0fHDudqE-79">
          <mxGeometry width="50" height="50" relative="1" as="geometry">
            <mxPoint x="190" y="600" as="sourcePoint" />
            <mxPoint x="240" y="550" as="targetPoint" />
          </mxGeometry>
        </mxCell>
        <mxCell id="I9MuD-WdvE4B0fHDudqE-115" value="" style="endArrow=none;html=1;rounded=0;entryX=0;entryY=0.5;entryDx=0;entryDy=0;exitX=0.5;exitY=0;exitDx=0;exitDy=0;" edge="1" parent="1" source="I9MuD-WdvE4B0fHDudqE-35" target="I9MuD-WdvE4B0fHDudqE-55">
          <mxGeometry width="50" height="50" relative="1" as="geometry">
            <mxPoint x="-440" y="670" as="sourcePoint" />
            <mxPoint x="-390" y="620" as="targetPoint" />
            <Array as="points">
              <mxPoint x="-420" y="630" />
              <mxPoint x="-520" y="630" />
              <mxPoint x="-520" y="430" />
            </Array>
          </mxGeometry>
        </mxCell>
        <mxCell id="I9MuD-WdvE4B0fHDudqE-116" value="" style="endArrow=none;html=1;rounded=0;entryX=0.005;entryY=0.597;entryDx=0;entryDy=0;entryPerimeter=0;" edge="1" parent="1" target="I9MuD-WdvE4B0fHDudqE-54">
          <mxGeometry width="50" height="50" relative="1" as="geometry">
            <mxPoint x="-520" y="490" as="sourcePoint" />
            <mxPoint x="-470" y="490" as="targetPoint" />
          </mxGeometry>
        </mxCell>
        <mxCell id="I9MuD-WdvE4B0fHDudqE-117" value="" style="endArrow=none;html=1;rounded=0;entryX=0;entryY=0.5;entryDx=0;entryDy=0;" edge="1" parent="1" target="I9MuD-WdvE4B0fHDudqE-53">
          <mxGeometry width="50" height="50" relative="1" as="geometry">
            <mxPoint x="-520" y="545.72" as="sourcePoint" />
            <mxPoint x="-466" y="545.72" as="targetPoint" />
          </mxGeometry>
        </mxCell>
        <mxCell id="I9MuD-WdvE4B0fHDudqE-118" value="" style="endArrow=none;html=1;rounded=0;entryX=0;entryY=0.5;entryDx=0;entryDy=0;" edge="1" parent="1">
          <mxGeometry width="50" height="50" relative="1" as="geometry">
            <mxPoint x="-520" y="590.86" as="sourcePoint" />
            <mxPoint x="-465" y="591.14" as="targetPoint" />
          </mxGeometry>
        </mxCell>
        <mxCell id="I9MuD-WdvE4B0fHDudqE-119" value="" style="endArrow=none;html=1;rounded=0;entryX=0;entryY=0.5;entryDx=0;entryDy=0;exitX=0.5;exitY=0;exitDx=0;exitDy=0;" edge="1" parent="1" source="I9MuD-WdvE4B0fHDudqE-56" target="I9MuD-WdvE4B0fHDudqE-62">
          <mxGeometry width="50" height="50" relative="1" as="geometry">
            <mxPoint x="-350" y="610" as="sourcePoint" />
            <mxPoint x="-300" y="560" as="targetPoint" />
            <Array as="points">
              <mxPoint x="-300" y="560" />
              <mxPoint x="-320" y="560" />
              <mxPoint x="-360" y="560" />
              <mxPoint x="-360" y="430" />
            </Array>
          </mxGeometry>
        </mxCell>
        <mxCell id="I9MuD-WdvE4B0fHDudqE-120" value="" style="endArrow=none;html=1;rounded=0;" edge="1" parent="1">
          <mxGeometry width="50" height="50" relative="1" as="geometry">
            <mxPoint x="-360" y="475.6" as="sourcePoint" />
            <mxPoint x="-340" y="475.6" as="targetPoint" />
          </mxGeometry>
        </mxCell>
        <mxCell id="I9MuD-WdvE4B0fHDudqE-121" value="" style="endArrow=none;html=1;rounded=0;" edge="1" parent="1">
          <mxGeometry width="50" height="50" relative="1" as="geometry">
            <mxPoint x="-360" y="526" as="sourcePoint" />
            <mxPoint x="-340" y="526" as="targetPoint" />
          </mxGeometry>
        </mxCell>
        <mxCell id="I9MuD-WdvE4B0fHDudqE-122" value="" style="endArrow=none;html=1;rounded=0;exitX=0.5;exitY=0;exitDx=0;exitDy=0;" edge="1" parent="1" source="I9MuD-WdvE4B0fHDudqE-57">
          <mxGeometry width="50" height="50" relative="1" as="geometry">
            <mxPoint x="-250" y="480" as="sourcePoint" />
            <mxPoint x="-200" y="430" as="targetPoint" />
            <Array as="points">
              <mxPoint x="-170" y="560" />
              <mxPoint x="-200" y="560" />
              <mxPoint x="-230" y="560" />
              <mxPoint x="-230" y="430" />
            </Array>
          </mxGeometry>
        </mxCell>
        <mxCell id="I9MuD-WdvE4B0fHDudqE-123" value="" style="endArrow=none;html=1;rounded=0;entryX=0;entryY=0.5;entryDx=0;entryDy=0;" edge="1" parent="1" target="I9MuD-WdvE4B0fHDudqE-63">
          <mxGeometry width="50" height="50" relative="1" as="geometry">
            <mxPoint x="-230" y="525.72" as="sourcePoint" />
            <mxPoint x="-210" y="525.72" as="targetPoint" />
          </mxGeometry>
        </mxCell>
        <mxCell id="I9MuD-WdvE4B0fHDudqE-124" value="" style="endArrow=none;html=1;rounded=0;entryX=0;entryY=0.5;entryDx=0;entryDy=0;" edge="1" parent="1">
          <mxGeometry width="50" height="50" relative="1" as="geometry">
            <mxPoint x="-230" y="475.72" as="sourcePoint" />
            <mxPoint x="-200" y="476" as="targetPoint" />
          </mxGeometry>
        </mxCell>
        <mxCell id="I9MuD-WdvE4B0fHDudqE-125" value="" style="endArrow=none;html=1;rounded=0;entryX=0.5;entryY=1;entryDx=0;entryDy=0;exitX=0.5;exitY=0;exitDx=0;exitDy=0;" edge="1" parent="1" source="I9MuD-WdvE4B0fHDudqE-73" target="I9MuD-WdvE4B0fHDudqE-91">
          <mxGeometry width="50" height="50" relative="1" as="geometry">
            <mxPoint x="480" y="670" as="sourcePoint" />
            <mxPoint x="530" y="620" as="targetPoint" />
            <Array as="points">
              <mxPoint x="380" y="630" />
              <mxPoint x="500" y="630" />
            </Array>
          </mxGeometry>
        </mxCell>
        <mxCell id="I9MuD-WdvE4B0fHDudqE-126" value="" style="endArrow=none;html=1;rounded=0;exitX=0;exitY=0.5;exitDx=0;exitDy=0;entryX=0.5;entryY=0;entryDx=0;entryDy=0;" edge="1" parent="1" source="I9MuD-WdvE4B0fHDudqE-90" target="I9MuD-WdvE4B0fHDudqE-73">
          <mxGeometry width="50" height="50" relative="1" as="geometry">
            <mxPoint x="330" y="690" as="sourcePoint" />
            <mxPoint x="390" y="620" as="targetPoint" />
            <Array as="points">
              <mxPoint x="300" y="456" />
              <mxPoint x="300" y="630" />
              <mxPoint x="380" y="630" />
            </Array>
          </mxGeometry>
        </mxCell>
        <mxCell id="I9MuD-WdvE4B0fHDudqE-127" value="" style="endArrow=none;html=1;rounded=0;entryX=0.513;entryY=1.006;entryDx=0;entryDy=0;exitX=0.462;exitY=0.004;exitDx=0;exitDy=0;exitPerimeter=0;entryPerimeter=0;" edge="1" parent="1" source="I9MuD-WdvE4B0fHDudqE-91" target="I9MuD-WdvE4B0fHDudqE-92">
          <mxGeometry width="50" height="50" relative="1" as="geometry">
            <mxPoint x="460" y="600" as="sourcePoint" />
            <mxPoint x="510" y="550" as="targetPoint" />
          </mxGeometry>
        </mxCell>
        <mxCell id="I9MuD-WdvE4B0fHDudqE-128" value="" style="endArrow=none;html=1;rounded=0;" edge="1" parent="1">
          <mxGeometry width="50" height="50" relative="1" as="geometry">
            <mxPoint x="300" y="500" as="sourcePoint" />
            <mxPoint x="330" y="500" as="targetPoint" />
          </mxGeometry>
        </mxCell>
        <mxCell id="I9MuD-WdvE4B0fHDudqE-129" value="" style="endArrow=none;html=1;rounded=0;" edge="1" parent="1">
          <mxGeometry width="50" height="50" relative="1" as="geometry">
            <mxPoint x="300" y="545.31" as="sourcePoint" />
            <mxPoint x="330" y="545.31" as="targetPoint" />
          </mxGeometry>
        </mxCell>
        <mxCell id="I9MuD-WdvE4B0fHDudqE-130" value="" style="endArrow=none;html=1;rounded=0;" edge="1" parent="1">
          <mxGeometry width="50" height="50" relative="1" as="geometry">
            <mxPoint x="300" y="595.66" as="sourcePoint" />
            <mxPoint x="330" y="595.66" as="targetPoint" />
          </mxGeometry>
        </mxCell>
        <mxCell id="I9MuD-WdvE4B0fHDudqE-131" value="" style="endArrow=none;html=1;rounded=0;entryX=0.5;entryY=1;entryDx=0;entryDy=0;" edge="1" parent="1" target="I9MuD-WdvE4B0fHDudqE-93">
          <mxGeometry width="50" height="50" relative="1" as="geometry">
            <mxPoint x="500" y="630" as="sourcePoint" />
            <mxPoint x="620" y="620" as="targetPoint" />
            <Array as="points">
              <mxPoint x="620" y="630" />
            </Array>
          </mxGeometry>
        </mxCell>
        <mxCell id="I9MuD-WdvE4B0fHDudqE-132" value="" style="endArrow=none;html=1;rounded=0;exitX=0;exitY=0.5;exitDx=0;exitDy=0;entryX=0.5;entryY=0;entryDx=0;entryDy=0;" edge="1" parent="1" source="I9MuD-WdvE4B0fHDudqE-95" target="I9MuD-WdvE4B0fHDudqE-93">
          <mxGeometry width="50" height="50" relative="1" as="geometry">
            <mxPoint x="570" y="620" as="sourcePoint" />
            <mxPoint x="620" y="560" as="targetPoint" />
            <Array as="points">
              <mxPoint x="560" y="476" />
              <mxPoint x="560" y="560" />
              <mxPoint x="620" y="560" />
            </Array>
          </mxGeometry>
        </mxCell>
        <mxCell id="I9MuD-WdvE4B0fHDudqE-134" value="" style="endArrow=none;html=1;rounded=0;" edge="1" parent="1">
          <mxGeometry width="50" height="50" relative="1" as="geometry">
            <mxPoint x="560" y="526" as="sourcePoint" />
            <mxPoint x="570" y="526" as="targetPoint" />
          </mxGeometry>
        </mxCell>
        <mxCell id="I9MuD-WdvE4B0fHDudqE-135" value="" style="endArrow=none;html=1;rounded=0;entryX=0.513;entryY=0.994;entryDx=0;entryDy=0;exitX=0.462;exitY=-0.005;exitDx=0;exitDy=0;exitPerimeter=0;entryPerimeter=0;" edge="1" parent="1" source="I9MuD-WdvE4B0fHDudqE-86" target="I9MuD-WdvE4B0fHDudqE-96">
          <mxGeometry width="50" height="50" relative="1" as="geometry">
            <mxPoint x="690" y="680" as="sourcePoint" />
            <mxPoint x="740" y="630" as="targetPoint" />
          </mxGeometry>
        </mxCell>
        <mxCell id="I9MuD-WdvE4B0fHDudqE-139" style="edgeStyle=orthogonalEdgeStyle;rounded=0;orthogonalLoop=1;jettySize=auto;html=1;exitX=0;exitY=0.5;exitDx=0;exitDy=0;entryX=0.005;entryY=0.171;entryDx=0;entryDy=0;entryPerimeter=0;" edge="1" parent="1" source="I9MuD-WdvE4B0fHDudqE-41" target="I9MuD-WdvE4B0fHDudqE-23">
          <mxGeometry relative="1" as="geometry">
            <Array as="points">
              <mxPoint x="-640" y="480" />
              <mxPoint x="-650" y="480" />
              <mxPoint x="-650" y="317" />
            </Array>
          </mxGeometry>
        </mxCell>
        <mxCell id="I9MuD-WdvE4B0fHDudqE-143" style="edgeStyle=orthogonalEdgeStyle;rounded=0;orthogonalLoop=1;jettySize=auto;html=1;exitX=0;exitY=0.75;exitDx=0;exitDy=0;entryX=0.367;entryY=1.033;entryDx=0;entryDy=0;entryPerimeter=0;" edge="1" parent="1" source="I9MuD-WdvE4B0fHDudqE-54" target="I9MuD-WdvE4B0fHDudqE-22">
          <mxGeometry relative="1" as="geometry">
            <Array as="points">
              <mxPoint x="-486" y="496" />
              <mxPoint x="-486" y="370" />
              <mxPoint x="-117" y="370" />
            </Array>
          </mxGeometry>
        </mxCell>
        <mxCell id="I9MuD-WdvE4B0fHDudqE-145" style="edgeStyle=orthogonalEdgeStyle;rounded=0;orthogonalLoop=1;jettySize=auto;html=1;exitX=0;exitY=0.75;exitDx=0;exitDy=0;entryX=0.127;entryY=0.957;entryDx=0;entryDy=0;entryPerimeter=0;" edge="1" parent="1">
          <mxGeometry relative="1" as="geometry">
            <mxPoint x="-466" y="439.72" as="sourcePoint" />
            <mxPoint x="-138.56999999999994" y="348" as="targetPoint" />
            <Array as="points">
              <mxPoint x="-486" y="439.72" />
              <mxPoint x="-486" y="369.72" />
              <mxPoint x="-139" y="369.72" />
            </Array>
          </mxGeometry>
        </mxCell>
        <mxCell id="I9MuD-WdvE4B0fHDudqE-148" style="edgeStyle=orthogonalEdgeStyle;rounded=0;orthogonalLoop=1;jettySize=auto;html=1;exitX=0;exitY=0.25;exitDx=0;exitDy=0;entryX=0.441;entryY=1.075;entryDx=0;entryDy=0;entryPerimeter=0;" edge="1" parent="1" source="I9MuD-WdvE4B0fHDudqE-61" target="I9MuD-WdvE4B0fHDudqE-11">
          <mxGeometry relative="1" as="geometry">
            <Array as="points">
              <mxPoint x="-350" y="466" />
              <mxPoint x="-350" y="403" />
              <mxPoint x="-10" y="403" />
            </Array>
          </mxGeometry>
        </mxCell>
        <mxCell id="I9MuD-WdvE4B0fHDudqE-153" style="edgeStyle=orthogonalEdgeStyle;rounded=0;orthogonalLoop=1;jettySize=auto;html=1;exitX=0;exitY=0.75;exitDx=0;exitDy=0;entryX=0.406;entryY=0.982;entryDx=0;entryDy=0;entryPerimeter=0;" edge="1" parent="1" source="I9MuD-WdvE4B0fHDudqE-65" target="I9MuD-WdvE4B0fHDudqE-21">
          <mxGeometry relative="1" as="geometry" />
        </mxCell>
        <mxCell id="I9MuD-WdvE4B0fHDudqE-155" style="edgeStyle=orthogonalEdgeStyle;rounded=0;orthogonalLoop=1;jettySize=auto;html=1;exitX=0;exitY=0.25;exitDx=0;exitDy=0;entryX=0.322;entryY=1.051;entryDx=0;entryDy=0;entryPerimeter=0;" edge="1" parent="1" source="I9MuD-WdvE4B0fHDudqE-63" target="I9MuD-WdvE4B0fHDudqE-21">
          <mxGeometry relative="1" as="geometry" />
        </mxCell>
        <mxCell id="I9MuD-WdvE4B0fHDudqE-157" style="edgeStyle=orthogonalEdgeStyle;rounded=0;orthogonalLoop=1;jettySize=auto;html=1;exitX=0;exitY=0.75;exitDx=0;exitDy=0;entryX=0.833;entryY=1.025;entryDx=0;entryDy=0;entryPerimeter=0;" edge="1" parent="1" source="I9MuD-WdvE4B0fHDudqE-64" target="I9MuD-WdvE4B0fHDudqE-20">
          <mxGeometry relative="1" as="geometry">
            <Array as="points">
              <mxPoint x="-210" y="486" />
              <mxPoint x="-210" y="400" />
              <mxPoint x="-285" y="400" />
            </Array>
          </mxGeometry>
        </mxCell>
        <mxCell id="I9MuD-WdvE4B0fHDudqE-158" style="edgeStyle=orthogonalEdgeStyle;rounded=0;orthogonalLoop=1;jettySize=auto;html=1;exitX=0;exitY=0.75;exitDx=0;exitDy=0;entryX=0.424;entryY=1.005;entryDx=0;entryDy=0;entryPerimeter=0;" edge="1" parent="1" source="I9MuD-WdvE4B0fHDudqE-63" target="I9MuD-WdvE4B0fHDudqE-20">
          <mxGeometry relative="1" as="geometry">
            <Array as="points">
              <mxPoint x="-220" y="536" />
              <mxPoint x="-220" y="400" />
              <mxPoint x="-322" y="400" />
            </Array>
          </mxGeometry>
        </mxCell>
        <mxCell id="I9MuD-WdvE4B0fHDudqE-159" style="edgeStyle=orthogonalEdgeStyle;rounded=0;orthogonalLoop=1;jettySize=auto;html=1;exitX=0.5;exitY=0;exitDx=0;exitDy=0;entryX=0.663;entryY=1.013;entryDx=0;entryDy=0;entryPerimeter=0;" edge="1" parent="1" source="I9MuD-WdvE4B0fHDudqE-75" target="I9MuD-WdvE4B0fHDudqE-11">
          <mxGeometry relative="1" as="geometry" />
        </mxCell>
        <mxCell id="I9MuD-WdvE4B0fHDudqE-160" style="edgeStyle=orthogonalEdgeStyle;rounded=0;orthogonalLoop=1;jettySize=auto;html=1;exitX=0;exitY=0.25;exitDx=0;exitDy=0;entryX=0.628;entryY=1.013;entryDx=0;entryDy=0;entryPerimeter=0;" edge="1" parent="1" source="I9MuD-WdvE4B0fHDudqE-74" target="I9MuD-WdvE4B0fHDudqE-21">
          <mxGeometry relative="1" as="geometry">
            <Array as="points">
              <mxPoint x="-90" y="516" />
              <mxPoint x="-90" y="400" />
              <mxPoint x="-199" y="400" />
            </Array>
          </mxGeometry>
        </mxCell>
        <mxCell id="I9MuD-WdvE4B0fHDudqE-161" style="edgeStyle=orthogonalEdgeStyle;rounded=0;orthogonalLoop=1;jettySize=auto;html=1;exitX=0;exitY=0.25;exitDx=0;exitDy=0;entryX=0.811;entryY=1.096;entryDx=0;entryDy=0;entryPerimeter=0;" edge="1" parent="1" source="I9MuD-WdvE4B0fHDudqE-78" target="I9MuD-WdvE4B0fHDudqE-11">
          <mxGeometry relative="1" as="geometry" />
        </mxCell>
        <mxCell id="I9MuD-WdvE4B0fHDudqE-163" style="edgeStyle=orthogonalEdgeStyle;rounded=0;orthogonalLoop=1;jettySize=auto;html=1;exitX=0;exitY=0.25;exitDx=0;exitDy=0;entryX=0.889;entryY=1;entryDx=0;entryDy=0;entryPerimeter=0;" edge="1" parent="1" source="I9MuD-WdvE4B0fHDudqE-76" target="I9MuD-WdvE4B0fHDudqE-22">
          <mxGeometry relative="1" as="geometry">
            <Array as="points">
              <mxPoint x="40" y="516" />
              <mxPoint x="40" y="440" />
              <mxPoint x="-70" y="440" />
            </Array>
          </mxGeometry>
        </mxCell>
        <mxCell id="I9MuD-WdvE4B0fHDudqE-165" style="edgeStyle=orthogonalEdgeStyle;rounded=0;orthogonalLoop=1;jettySize=auto;html=1;exitX=0.25;exitY=0;exitDx=0;exitDy=0;entryX=0.941;entryY=1.075;entryDx=0;entryDy=0;entryPerimeter=0;" edge="1" parent="1" source="I9MuD-WdvE4B0fHDudqE-90" target="I9MuD-WdvE4B0fHDudqE-13">
          <mxGeometry relative="1" as="geometry" />
        </mxCell>
        <mxCell id="I9MuD-WdvE4B0fHDudqE-167" style="edgeStyle=orthogonalEdgeStyle;rounded=0;orthogonalLoop=1;jettySize=auto;html=1;exitX=0;exitY=0.25;exitDx=0;exitDy=0;entryX=0.813;entryY=1.033;entryDx=0;entryDy=0;entryPerimeter=0;" edge="1" parent="1" source="I9MuD-WdvE4B0fHDudqE-88" target="I9MuD-WdvE4B0fHDudqE-21">
          <mxGeometry relative="1" as="geometry">
            <Array as="points">
              <mxPoint x="310" y="536" />
              <mxPoint x="310" y="390" />
              <mxPoint x="-183" y="390" />
            </Array>
          </mxGeometry>
        </mxCell>
        <mxCell id="I9MuD-WdvE4B0fHDudqE-168" style="edgeStyle=orthogonalEdgeStyle;rounded=0;orthogonalLoop=1;jettySize=auto;html=1;exitX=0;exitY=0.25;exitDx=0;exitDy=0;entryX=0.667;entryY=1;entryDx=0;entryDy=0;entryPerimeter=0;" edge="1" parent="1" source="I9MuD-WdvE4B0fHDudqE-87" target="I9MuD-WdvE4B0fHDudqE-22">
          <mxGeometry relative="1" as="geometry">
            <Array as="points">
              <mxPoint x="310" y="586" />
              <mxPoint x="310" y="390" />
              <mxPoint x="-90" y="390" />
            </Array>
          </mxGeometry>
        </mxCell>
        <mxCell id="I9MuD-WdvE4B0fHDudqE-170" style="edgeStyle=orthogonalEdgeStyle;rounded=0;orthogonalLoop=1;jettySize=auto;html=1;exitX=0.25;exitY=0;exitDx=0;exitDy=0;entryX=0.561;entryY=0.971;entryDx=0;entryDy=0;entryPerimeter=0;" edge="1" parent="1" source="I9MuD-WdvE4B0fHDudqE-95" target="I9MuD-WdvE4B0fHDudqE-20">
          <mxGeometry relative="1" as="geometry">
            <Array as="points">
              <mxPoint x="593" y="390" />
              <mxPoint x="-309" y="390" />
            </Array>
          </mxGeometry>
        </mxCell>
        <mxCell id="I9MuD-WdvE4B0fHDudqE-171" style="edgeStyle=orthogonalEdgeStyle;rounded=0;orthogonalLoop=1;jettySize=auto;html=1;exitX=1;exitY=0.25;exitDx=0;exitDy=0;entryX=0.191;entryY=1.013;entryDx=0;entryDy=0;entryPerimeter=0;" edge="1" parent="1" source="I9MuD-WdvE4B0fHDudqE-94" target="I9MuD-WdvE4B0fHDudqE-20">
          <mxGeometry relative="1" as="geometry">
            <Array as="points">
              <mxPoint x="680" y="516" />
              <mxPoint x="680" y="380" />
              <mxPoint x="-343" y="380" />
            </Array>
          </mxGeometry>
        </mxCell>
        <mxCell id="I9MuD-WdvE4B0fHDudqE-174" style="edgeStyle=orthogonalEdgeStyle;rounded=0;orthogonalLoop=1;jettySize=auto;html=1;exitX=0.5;exitY=0;exitDx=0;exitDy=0;entryX=0.596;entryY=1.037;entryDx=0;entryDy=0;entryPerimeter=0;" edge="1" parent="1" source="I9MuD-WdvE4B0fHDudqE-98" target="I9MuD-WdvE4B0fHDudqE-22">
          <mxGeometry relative="1" as="geometry">
            <Array as="points">
              <mxPoint x="877" y="390" />
              <mxPoint x="-96" y="390" />
            </Array>
          </mxGeometry>
        </mxCell>
      </root>
    </mxGraphModel>
  </diagram>
</mxfile>
